# xmcd CD database file
#
# Track frame offsets:
#	150
#	17601
#	36982
#	70626
#	93580
#	114117
#	125887
#	149155
#	159894
#	175834
#	188653
#	204450
#	228265
#	248729
#	270558
#	306493
#	328981
#
# Disc length: 4703 seconds
#
# Revision: 0
# Processed by: cddbd v1.5.2PL0 Copyright (c) Steve Scherf et al.
# Submitted via: CDex 1.40Beta8
#
DISCID=f0125d11
DTITLE=Various Artist - Double Shot of Blues (disk 2)
DYEAR=2001
DGENRE=Blues
TTITLE0=Stop Messin' around/Gary Moore
TTITLE1=Right next door/Robert Cray Band
TTITLE2=Jessica/The Allman Brothers Band
TTITLE3=Cray 'bout an automobile/Ry Cooder
TTITLE4=Legs/ZZ Top
TTITLE5=Sugar Bee/Canned Heat
TTITLE6=With a little help from my friends/Joe Cocker
TTITLE7=After midnight/J J Cale
TTITLE8=The night they drove old dixie down/The Band
TTITLE9=Sailin' shoes/Little Feat
TTITLE10=Treat her right/George Thorogood
TTITLE11=15 feet of snow/Dielsel
TTITLE12=Try a little tenderness/The Commitments
TTITLE13=Roadhouse blues/The Jeff Healey Band
TTITLE14=Voodoo Chile/Stevie Ray Vaughan and Double Trouble
TTITLE15=White room/Cream
TTITLE16=Free bird/Lynyrd Skynyrd
EXTD=ID3G: 0
EXTT0=
EXTT1=
EXTT2=
EXTT3=
EXTT4=
EXTT5=
EXTT6=
EXTT7=
EXTT8=
EXTT9=
EXTT10=
EXTT11=
EXTT12=
EXTT13=
EXTT14=
EXTT15=
EXTT16=
PLAYORDER=
